<svg xmlns="http://www.w3.org/2000/svg" width="35" height="34" viewBox="0 0 35 34">
  <g id="Group_22867" data-name="Group 22867" transform="translate(-9948 -3092)">
    <path id="Path_25061" data-name="Path 25061" d="M176.788-45.67h20.176l.517-.044,9.457-21.267a.716.716,0,0,0-.411-.96.772.772,0,0,0-1,.393l-9.062,20.423H176.651a5.381,5.381,0,0,0-3.938,2.5,4.826,4.826,0,0,0-.7,2.88A5.322,5.322,0,0,0,177.472-37h20.936a.762.762,0,0,0,.775-.742.762.762,0,0,0-.775-.742H177.472a3.806,3.806,0,0,1-3.923-3.375,3.478,3.478,0,0,1,.5-2.051A3.838,3.838,0,0,1,176.788-45.67Z" transform="translate(9776 3160)" fill="#fff"/>
    <g id="Ellipse_1" data-name="Ellipse 1" transform="translate(9954 3124)" fill="#fff" stroke="#fff" stroke-width="1">
      <circle cx="1" cy="1" r="1" stroke="none"/>
      <circle cx="1" cy="1" r="0.5" fill="none"/>
    </g>
    <g id="Ellipse_2" data-name="Ellipse 2" transform="translate(9970 3124)" fill="#fff" stroke="#fff" stroke-width="1">
      <circle cx="1" cy="1" r="1" stroke="none"/>
      <circle cx="1" cy="1" r="0.5" fill="none"/>
    </g>
  </g>
</svg>
