<?xml version="1.0" standalone="no"?>
<!DOCTYPE svg PUBLIC "-//W3C//DTD SVG 20010904//EN"
 "http://www.w3.org/TR/2001/REC-SVG-20010904/DTD/svg10.dtd">
<svg version="1.0" xmlns="http://www.w3.org/2000/svg"
 width="512.000000pt" height="512.000000pt" viewBox="0 0 512.000000 512.000000"
 preserveAspectRatio="xMidYMid meet">

<g transform="translate(0.000000,512.000000) scale(0.100000,-0.100000)"
fill="#000000" stroke="none">
<path d="M1340 4794 c-258 -33 -468 -106 -657 -230 -295 -191 -506 -466 -611
-794 -189 -591 -2 -1200 587 -1910 113 -137 489 -516 651 -656 283 -247 594
-483 915 -697 292 -194 324 -208 410 -168 65 30 454 293 653 443 361 271 618
494 897 779 532 543 820 1020 911 1504 25 134 25 392 0 520 -119 606 -562
1056 -1170 1187 -135 29 -415 31 -551 4 -275 -54 -515 -173 -727 -360 l-88
-77 -92 81 c-51 44 -124 101 -162 127 -160 107 -375 195 -563 228 -87 16 -335
27 -403 19z m285 -325 c312 -43 567 -190 777 -446 63 -77 102 -103 158 -103
56 0 96 26 156 101 125 157 255 262 426 344 578 277 1265 33 1543 -547 260
-543 78 -1142 -564 -1862 -339 -380 -915 -862 -1473 -1231 l-88 -58 -142 96
c-928 622 -1642 1331 -1928 1912 -209 425 -224 797 -45 1160 67 136 128 218
249 332 249 234 600 348 931 302z"/>
</g>
</svg>
