<svg xmlns="http://www.w3.org/2000/svg" width="38.962" height="36.039" viewBox="0 0 38.962 36.039">
  <g id="Group_22868" data-name="Group 22868" transform="translate(73 -63)">
    <g id="Group_22869" data-name="Group 22869">
      <path id="Path_25032" data-name="Path 25032" d="M42.62-23.032H34.178c-1.89,0-3.4,1.871-3.4,4.209v2.962c0,2.339,1.512,4.209,3.4,4.209H42.62c1.89,0,3.4-1.871,3.4-4.209v-2.962C46.022-21.161,44.51-23.032,42.62-23.032Zm1.708,7.9a1.517,1.517,0,0,1-1.564,1.588H34.034a1.517,1.517,0,0,1-1.564-1.588v-2.514a1.517,1.517,0,0,1,1.564-1.588h8.731a1.517,1.517,0,0,1,1.564,1.588Zm18.5-15L60.974-41.11a1,1,0,0,0-.928-.89H26.916a.928.928,0,0,0-.928.89L24.4-32.063a6.572,6.572,0,0,0-.4,2.225A6.2,6.2,0,0,0,26.783-24.5V-9.224A3.132,3.132,0,0,0,29.7-5.961H48.252a1.11,1.11,0,0,0,1.06-1.186V-20.792h5.3V-7.148a1.116,1.116,0,0,0,1.06,1.186h1.855a3.132,3.132,0,0,0,2.916-3.263V-24.8a6.354,6.354,0,0,0,2.518-4.746A.975.975,0,0,0,62.829-30.135ZM59.438-8.846a.948.948,0,0,1-.953.988h-.953V-20.7a1.1,1.1,0,0,0-1.089-1.129H48.956A1.093,1.093,0,0,0,47.867-20.7V-7.858H30.035a.948.948,0,0,1-.953-.988V-22.531c.272,0,.545.141.817.141a5.869,5.869,0,0,0,4.764-2.539,5.685,5.685,0,0,0,4.764,2.539,5.685,5.685,0,0,0,4.764-2.539,5.685,5.685,0,0,0,4.764,2.539,5.685,5.685,0,0,0,4.764-2.539,5.685,5.685,0,0,0,4.764,2.539,2.567,2.567,0,0,0,1.089-.141V-8.846Zm1.695-19.938a3.742,3.742,0,0,1-3.652,3.855,3.742,3.742,0,0,1-3.652-3.855,1.1,1.1,0,0,0-1.082-1.142,1.024,1.024,0,0,0-1.082,1.142,3.742,3.742,0,0,1-3.652,3.855,3.742,3.742,0,0,1-3.652-3.855,1.1,1.1,0,0,0-1.082-1.142A1.024,1.024,0,0,0,42.2-28.784a3.742,3.742,0,0,1-3.652,3.855,3.742,3.742,0,0,1-3.652-3.855,1.1,1.1,0,0,0-1.082-1.142c-.676,0-.812.571-.812,1.142a3.742,3.742,0,0,1-3.652,3.855,3.742,3.742,0,0,1-3.652-3.855,5.32,5.32,0,0,1,.271-1.428v-.143l1.488-7.852H59.645l1.623,9.28Z" transform="translate(-97 105)" fill="#5e5252"/>
    </g>
  </g>
</svg>
