<svg xmlns="http://www.w3.org/2000/svg" width="31" height="30"><path fill-rule="evenodd" d="M30.469 11.424c0-.018.018-.025.018-.043 0-.01-.01-.018-.012-.027.002-.021.006-.039.006-.061L28.674.449A.537.537 0 0 0 28.145 0H2.846a.536.536 0 0 0-.531.449L.5 11.381c0 1.42.717 2.672 1.809 3.422v14.648c0 .297.238.537.537.537h25.299c.297 0 .537-.24.537-.537V14.795a4.216 4.216 0 0 0 1.787-3.371zm-2.592 2.604h-.006a3.032 3.032 0 0 1-.695.297c-.031.01-.061.021-.092.029a2.957 2.957 0 0 1-.746.104 3.076 3.076 0 0 1-3.023-2.539h6.041a3.075 3.075 0 0 1-1.479 2.109zm-5.693-3.184h-6.152V1.076h6.152v9.768zm-7.229 0H8.801V1.076h6.154v9.768zm-.055 1.074a3.075 3.075 0 0 1-3.021 2.539 3.078 3.078 0 0 1-3.023-2.539H14.9zm7.229 0a3.074 3.074 0 0 1-3.021 2.539 3.076 3.076 0 0 1-3.018-2.539h6.039zm7.193-1.074H23.26V1.076h4.426l1.636 9.768zM3.299 1.076h4.428v9.768H1.674l1.625-9.768zm-1.68 10.842h6.053a3.075 3.075 0 0 1-3.02 2.539c-.256 0-.504-.039-.75-.104-.029-.008-.057-.018-.086-.025a3.194 3.194 0 0 1-.701-.299c-.004-.004-.014-.002-.018-.006a3.03 3.03 0 0 1-1.478-2.105zm16.219 16.996v-9.766h6.154v9.766h-6.154zm9.769-13.588v13.588h-2.539V18.61a.538.538 0 0 0-.539-.537H17.3a.538.538 0 0 0-.539.537v10.305H3.384V15.327c.029.01.059.006.088.016.375.111.766.191 1.18.191a4.152 4.152 0 0 0 3.611-2.109 4.159 4.159 0 0 0 3.615 2.109c1.547 0 2.9-.852 3.613-2.111a4.157 4.157 0 0 0 3.615 2.111c1.547 0 2.9-.852 3.615-2.109a4.156 4.156 0 0 0 3.615 2.109c.412 0 .803-.08 1.178-.193.031-.011.062-.005.093-.015zm-14.455 9.973H6.998v-6.15h6.154v6.15zm.537-7.227H6.46a.537.537 0 0 0-.539.537v7.229c0 .297.24.537.539.537h7.229c.297 0 .539-.24.539-.537v-7.229a.538.538 0 0 0-.539-.537z"/></svg>