<svg xmlns="http://www.w3.org/2000/svg" width="38.778" height="39.914" viewBox="0 0 38.778 39.914">
  <g id="Group_22870" data-name="Group 22870" transform="translate(-104 44)">
    <g id="Group_22871" data-name="Group 22871">
      <path id="Path_25046" data-name="Path 25046" d="M118-8.122q-5.093-.01-10.186-.041c-2.5-.043-4.558-2.669-3.552-4.938a4,4,0,0,1,3.6-2.229H110.2c0-3.629-.012-7.258,0-10.888a12.409,12.409,0,0,1,7.735-10.971l.044-.018a10.02,10.02,0,0,1,.341-3.525A5.493,5.493,0,0,1,123.488-44a5.386,5.386,0,0,1,5.378,5.015v1.778c.09.037.18.075.269.114a12.347,12.347,0,0,1,7.51,10.949V-15.33a10.618,10.618,0,0,1,3.891.3,3.581,3.581,0,0,1,1.29,5.726,4.113,4.113,0,0,1-2.8,1.142q-5.057.031-10.115.041a4.483,4.483,0,0,1-.5,1.474,4.94,4.94,0,0,1-4.3,2.557,9.2,9.2,0,0,1-2.989-.269A4.613,4.613,0,0,1,118-8.122Zm9.219.318h-7.592a3.294,3.294,0,0,0,3.117,2.28,7.594,7.594,0,0,0,2.4-.169A3.16,3.16,0,0,0,127.217-7.8Zm-3.844-34.762a3.848,3.848,0,0,0-3.841,3.586v2.248c-.043.6-.262.566-.892.822a10.906,10.906,0,0,0-6.887,9.7v11.6s-.163.679-.778.717c-2.118,0-4.6-.287-5.294,1.386A2.26,2.26,0,0,0,107.8-9.6q15.616.272,31.237,0c1.757-.051,2.986-2.321,1.628-3.633a2.471,2.471,0,0,0-1.692-.667h-3.109a.713.713,0,0,1-.778-.717c0-3.865.012-7.73,0-11.6a10.964,10.964,0,0,0-7.292-9.858.8.8,0,0,1-.487-.664c0-1.639.154-3.388-.911-4.556A3.951,3.951,0,0,0,123.372-42.566Z" fill="#534b4b" fill-rule="evenodd"/>
    </g>
  </g>
</svg>
