<svg xmlns="http://www.w3.org/2000/svg" xmlns:xlink="http://www.w3.org/1999/xlink" width="20" height="22" viewBox="0 0 20 22"><defs><clipPath id="a"><path d="M111.22-24.225q-2.627-.006-5.253-.023a2.052,2.052,0,0,1-1.832-2.722,2.054,2.054,0,0,1,1.856-1.228H107.2c0-2-.006-4,0-6a6.838,6.838,0,0,1,3.989-6.047l.022-.01a5.886,5.886,0,0,1,.176-1.943,2.829,2.829,0,0,1,2.667-1.8,2.865,2.865,0,0,1,2.773,2.764v.98l.139.063a6.818,6.818,0,0,1,3.873,6.035v5.96a5.137,5.137,0,0,1,2.007.165,2.04,2.04,0,0,1,.665,3.156,2.053,2.053,0,0,1-1.443.629q-2.608.017-5.217.023a2.588,2.588,0,0,1-.257.812A2.53,2.53,0,0,1,114.377-22a4.453,4.453,0,0,1-1.542-.148A2.508,2.508,0,0,1,111.22-24.225Zm4.755.175h-3.916a1.716,1.716,0,0,0,1.608,1.257,3.672,3.672,0,0,0,1.236-.093A1.693,1.693,0,0,0,115.974-24.05Zm-1.983-19.16a2.046,2.046,0,0,0-1.981,1.976v1.239c-.022.329-.135.312-.46.453A6.005,6.005,0,0,0,108-34.194V-27.8s-.084.375-.4.4c-1.092,0-2.374-.158-2.73.764a1.236,1.236,0,0,0,1.094,1.606q8.054.15,16.111,0a1.226,1.226,0,0,0,.84-2,1.231,1.231,0,0,0-.873-.368h-1.6a.378.378,0,0,1-.4-.4c0-2.131.006-4.261,0-6.391a6.019,6.019,0,0,0-3.761-5.434.434.434,0,0,1-.251-.366,3.8,3.8,0,0,0-.47-2.511A1.978,1.978,0,0,0,113.991-43.21Z" fill="none" clip-rule="evenodd"/></clipPath><clipPath id="b"><path d="M0,0H375V-792H0Z" fill="none"/></clipPath></defs><g transform="translate(-104 44)" clip-path="url(#a)"><g clip-path="url(#b)"><path d="M99-49h30v32H99Z" fill="#949494"/></g></g></svg>